<svg width="464" height="171" viewBox="0 0 464 171" fill="none" xmlns="http://www.w3.org/2000/svg">
<rect width="463.519" height="170.519" fill="#FCFCFC"/>
<path d="M99.2 51.7C99 52.7 98.9 53.6 98.9 54.5C98.8 58.2 98.8 61.9 99.1 65.6C99.3 68.8 98.8 71.9 98.6 75.1C98 82.5 96.9 89.7 95 96.9C93.9 101.2 92.4 105.4 90.9 109.5C90.7 110.2 90.4 110.8 90 111.4C87.6 115.3 83.1 116.6 78.9 114.8C75.3 113.2 72.1 110.9 69.6 107.8C67.7 105.5 65.7 103.4 63.7 101.3C62.2 99.8 61 98.2 59.9 96.5C59.6 96 59.4 95.5 58.9 95.2C58.5 95.7 58.4 96.2 58.3 96.8C57.4 99.9 56.3 102.9 55 105.9C54.6 106.7 54.2 107.5 53.8 108.3C51.1 113.1 46.8 114.7 41.5 113.8C37.3 113.1 34.1 110.7 32 107C30.8 105 30 102.8 29.2 100.6C27.1 94.2 25.6 87.7 24.2 81.1C23.4 77.1 22.3 73.2 21.6 69.3C21.2 66.6 20.8 64 20.8 61.4C20.7 59.8 20.8 58.3 21.2 56.8C21.7 55.1 22.6 53.6 24.1 52.6C26.8 50.9 30.2 51.5 32.4 54C33.5 55.2 34.3 56.5 34.9 58C36 60.7 36.8 63.4 37.7 66.2C39.9 73.2 41.5 80.4 43.3 87.6C43.4 88 43.5 88.5 43.8 88.9C43.9 88.9 44 88.8 44 88.8C45.4 85.1 47.4 81.6 48.6 77.7C48.7 77.1 48.7 76.6 48.6 76C48.4 74.7 48.4 73.5 48.8 72.3C49.7 69.3 51.5 67.3 54.6 66.7C57.7 66.1 60.3 67.1 62.4 69.4C63.2 70.2 63.7 71.2 64.2 72.1C66.2 75.6 68.3 78.9 70.7 82C72.1 83.8 73.4 85.7 74.6 87.6C75.7 89.4 77.3 90.8 78.8 92.4C79.3 91.9 79.3 91.4 79.4 90.9C81 84.9 82.1 78.9 83.1 72.9C84.2 65.8 84.6 58.7 85.3 51.6C85.3 51.1 85.3 50.6 85.3 50.1C85.2 47.1 86.5 44.8 89.2 43.4C91.9 42.1 94.5 42.3 96.9 44.2C99.3 46.2 100 48.8 99.2 51.7ZM157.771 74.9C157.771 75.4 157.671 76 158.071 76.5C158.071 77.4 158.071 78.2 158.071 79.1C157.671 79.9 157.771 80.7 157.771 81.5C157.471 86.4 157.071 91.2 156.271 96C155.571 100.4 153.171 103.8 150.271 107C149.771 107.6 148.971 108.1 148.171 108.4C147.671 108.6 147.371 109 147.071 109.5C144.371 114.8 139.971 117.4 134.071 117.6C130.571 117.7 127.071 117.1 124.071 115.3C120.971 113.5 118.071 111.5 115.271 109.3C113.071 107.6 111.371 105.3 110.171 102.8C108.371 98.8 106.671 94.9 106.271 90.5C106.171 90.2 106.171 89.9 106.171 89.6C106.071 83.6 106.171 77.7 107.371 71.9C108.271 66.9 110.471 62.4 113.771 58.4C116.171 55.6 119.171 53.8 122.771 53C127.571 52 132.271 51.5 136.971 52.8C137.571 52.9 138.071 52.9 138.671 52.8C141.271 52.6 143.771 53.2 146.071 54.6C149.071 56.4 151.571 58.8 153.471 61.8C155.971 65.8 157.371 70.2 157.771 74.9ZM144.271 91.1C145.071 88.6 145.771 86 145.371 83.3C145.171 82.4 145.171 81.3 145.271 80.4C145.471 78.6 145.071 76.9 144.671 75.2C144.271 73.4 143.271 72 142.371 70.4C141.071 68 139.071 66.1 136.971 64.3C136.771 64.1 136.471 63.9 136.071 63.9C132.971 64 129.871 64.1 126.971 65.3C126.371 65.6 125.971 65.9 125.571 66.4C123.571 69.6 121.871 73 121.371 76.8C121.071 79.2 120.971 81.5 120.771 83.8C120.871 86.1 120.671 88.4 121.471 90.6C121.971 92.3 122.671 93.9 123.371 95.5C123.971 96.8 124.971 97.7 126.371 98.3C127.671 98.8 128.971 99.3 130.271 99.8C131.971 100.6 133.871 100.8 135.771 101C136.271 101.1 136.771 100.9 137.171 100.8C137.671 100.6 137.871 100.4 137.971 100C138.471 98.1 139.671 96.6 141.171 95.4C142.471 94.2 143.771 92.9 144.271 91.1ZM212.684 107.4C213.684 110.4 212.784 113.4 210.484 115.2C207.984 117 204.884 117 202.284 115.1C198.184 112.2 194.284 108.9 190.484 105.7C190.084 105.3 189.784 104.9 188.984 104.7C188.884 106.2 188.884 107.7 188.584 109.1C188.284 110.4 187.884 111.6 187.284 112.7C184.984 116.8 179.984 116.9 177.584 112.9C176.284 110.9 175.884 108.6 175.784 106.3C175.384 99.2 174.384 92.2 173.984 85.1C173.984 84.6 173.984 84.1 173.784 83.6C172.684 79.2 172.284 74.6 171.084 70.1C170.184 66.8 169.584 63.4 168.784 60C168.484 58.7 167.884 57.5 167.484 56.3C167.284 56 166.984 55.8 166.784 55.6C164.784 53.6 164.184 51.2 165.284 48.6C166.084 46.4 167.784 44.9 169.784 43.9C171.184 43.1 172.784 42.6 174.284 42.4C178.184 41.8 181.984 41.4 185.884 41.8C187.684 42 189.284 42.5 190.884 43.3C193.284 44.4 195.584 45.7 197.784 47.1C199.184 47.9 200.284 49 201.284 50.1C203.684 52.7 205.984 55.3 207.184 58.7C207.884 60.9 208.184 63.1 208.384 65.4C208.784 70.9 208.384 76.3 206.184 81.5C204.684 84.8 202.684 87.5 200.084 89.9C198.484 91.3 198.484 91.3 199.984 92.7C202.784 95 205.284 97.7 207.484 100.6C208.384 101.6 209.384 102.6 210.384 103.6C211.384 104.7 212.184 106 212.684 107.4ZM190.584 76.4C191.984 74 192.484 71.5 192.384 68.8C192.384 68.2 192.384 67.6 192.384 67C192.284 65.4 191.784 64.1 190.784 62.8C189.284 60.9 187.784 59.2 185.684 58.1C185.284 57.8 184.884 57.5 184.484 57.2C183.584 56.2 182.584 56.1 181.384 56.2C180.584 56.3 180.384 56.7 180.484 57.3C180.684 58.1 180.784 59 180.884 59.8C181.584 62.7 182.384 65.5 182.784 68.4C183.384 72 184.484 75.5 185.484 78.9C185.684 79.7 185.984 79.9 186.684 79.7C188.384 79.1 189.684 77.9 190.584 76.4ZM266.784 102.3C268.384 105.5 267.584 109.1 264.984 111.3C262.284 113.6 258.684 113.7 255.784 111.5C255.584 111.4 255.384 111.2 255.184 111.1C252.584 108.3 249.584 105.9 247.084 103.1C245.484 101.2 243.784 99.4 241.884 97.8C241.684 97.6 241.484 97.4 241.084 97.4C241.084 99.1 241.184 100.8 241.384 102.5C241.584 104.8 241.884 107.1 242.084 109.3C242.284 111 242.184 112.5 241.484 114C240.284 116.5 237.784 118 235.284 117.9C232.484 117.7 230.084 115.7 229.284 112.9C228.984 111.7 228.884 110.5 228.684 109.3C228.484 107.7 228.284 106.2 227.884 104.7C227.684 103.7 227.484 102.7 227.384 101.6C226.884 95.6 225.584 89.8 224.384 84C223.784 81.1 223.484 78.3 223.584 75.4C223.584 74.4 223.684 73.4 223.884 72.4C224.284 70.9 223.984 69.4 223.284 68.1C222.284 66.2 221.884 64.1 221.784 62C221.784 60.7 221.884 59.3 221.684 58C221.484 56.6 221.184 55.3 220.684 54C219.684 51.4 219.484 48.7 220.084 46C220.984 42 224.484 39.7 228.284 40.5C230.484 41 231.984 42.3 232.984 44.3C233.584 45.4 233.984 46.7 233.984 48C234.184 51.3 234.884 54.5 235.884 57.6C236.584 59.5 237.084 61.3 237.584 63.2C238.384 61.7 239.084 60.2 239.884 58.7C241.484 55.5 243.484 52.4 245.184 49.2C245.984 47.8 246.684 46.4 247.384 45C248.784 42.5 250.884 41 253.784 40.8C258.784 40.5 262.584 45.1 261.384 50C260.784 52.9 259.484 55.7 258.184 58.4C255.584 63.9 252.384 69.2 249.184 74.5C248.284 75.9 247.584 77.4 246.684 78.8C246.184 79.5 246.284 80 246.984 80.5C249.684 83 252.384 85.6 254.984 88.1C258.684 91.7 261.884 95.7 265.184 99.7C265.784 100.5 266.384 101.4 266.784 102.3ZM315.496 92.5C315.696 94.3 315.796 96.1 315.696 97.9C315.096 104.1 312.396 109 307.296 112.6C305.196 114.1 302.896 115.4 300.196 116C298.696 116.3 297.096 116.6 295.496 116.5C291.296 116.4 287.396 115.3 284.096 112.5C282.496 111.2 280.896 110 279.296 108.7C276.596 106.4 274.996 103.4 274.396 100C273.496 95.6 277.696 92 281.996 93.3C284.296 94 285.796 95.5 286.996 97.4C288.296 99.3 292.296 101.5 294.596 101.3C298.296 100.9 300.596 98.9 300.396 94.8C300.396 93.4 299.796 92.3 298.596 91.3C296.596 89.6 294.096 88.9 291.596 88.4C288.396 87.8 285.496 86.7 282.696 85C278.496 82.5 276.396 78.7 276.096 73.9C275.896 69.6 276.696 65.4 278.696 61.6C282.196 55.1 288.296 51.9 295.496 53.4C297.396 53.8 299.296 54.4 301.096 54.9C302.496 55.3 303.696 56 304.796 56.9C307.796 59.5 307.096 63.9 303.396 65.2C300.496 66.3 297.396 67.1 294.196 67.1C291.896 67.2 290.396 68.7 290.396 71.1C290.396 71.7 290.596 72.1 291.096 72.3C291.396 72.4 291.696 72.6 291.996 72.8C294.396 73.7 296.596 74.8 298.996 75.4C302.796 76.3 305.896 78.3 308.896 80.5C312.896 83.6 315.096 87.6 315.496 92.5Z" fill="#2E6FB8"/>
<path d="M380.051 46.1543C380.344 52.476 379.95 58.9942 380.56 65.2822" stroke="#2E6FB8" stroke-width="4" stroke-miterlimit="1.5" stroke-linecap="round" stroke-linejoin="round"/>
<path d="M362.93 71.7212C366.156 71.4901 370.159 70.2094 373.37 70.572" stroke="#2E6FB8" stroke-width="4" stroke-miterlimit="1.5" stroke-linecap="round" stroke-linejoin="round"/>
<path d="M385.93 69.3457C389.78 69.8061 393.644 69.1946 397.51 69.6363" stroke="#2E6FB8" stroke-width="4" stroke-miterlimit="1.5" stroke-linecap="round" stroke-linejoin="round"/>
<path d="M380.304 75.8369C380.173 80.6113 380.191 85.3866 380.189 90.1619" stroke="#2E6FB8" stroke-width="4" stroke-miterlimit="1.5" stroke-linecap="round" stroke-linejoin="round"/>
<path d="M371.727 105.219C369.57 105.259 368.697 108.621 371.171 109.05C372.286 109.244 374.057 107.495 373.109 106.477" stroke="#2E6FB8" stroke-width="2" stroke-miterlimit="1.5" stroke-linecap="round" stroke-linejoin="round"/>
<path d="M394.529 90.9014C394.186 94.6555 394.484 98.3803 394.559 102.139" stroke="#2E6FB8" stroke-width="4" stroke-miterlimit="1.5" stroke-linecap="round" stroke-linejoin="round"/>
<path d="M386.199 107.65C387.451 107.493 388.745 107.262 390.009 107.272" stroke="#2E6FB8" stroke-width="4" stroke-miterlimit="1.5" stroke-linecap="round" stroke-linejoin="round"/>
<path d="M399.607 106.88C401.287 106.935 402.922 106.73 404.597 106.641" stroke="#2E6FB8" stroke-width="4" stroke-miterlimit="1.5" stroke-linecap="round" stroke-linejoin="round"/>
<path d="M395.119 112.159C394.932 116.239 394.974 120.326 394.971 124.408" stroke="#2E6FB8" stroke-width="4" stroke-miterlimit="1.5" stroke-linecap="round" stroke-linejoin="round"/>
<path d="M407.923 73.6807C405.119 74.3535 404.608 78.1653 407.968 78.2284C409.134 78.2507 411.597 75.9417 409.848 75.1542" stroke="#2E6FB8" stroke-width="2" stroke-miterlimit="1.5" stroke-linecap="round" stroke-linejoin="round"/>
<path d="M409.868 56.8366C405.536 55.3586 400.051 61.8074 405.086 64.3386C410.504 67.0626 416.939 60.3365 411.224 56.6953" stroke="#2E6FB8" stroke-width="4" stroke-miterlimit="1.5" stroke-linecap="round" stroke-linejoin="round"/>
</svg>
